<svg width="188" height="60" viewBox="0 0 188 60" fill="none" xmlns="http://www.w3.org/2000/svg">
<path d="M47.5 18.75C48.2083 18.75 48.8025 18.51 49.2825 18.03C49.7625 17.55 50.0017 16.9567 50 16.25C49.9983 15.5433 49.7583 14.95 49.28 14.47C48.8017 13.99 48.2083 13.75 47.5 13.75C46.7917 13.75 46.1983 13.99 45.72 14.47C45.2417 14.95 45.0017 15.5433 45 16.25C44.9983 16.9567 45.2383 17.5508 45.72 18.0325C46.2017 18.5142 46.795 18.7533 47.5 18.75ZM37.5 18.75C38.2083 18.75 38.8025 18.51 39.2825 18.03C39.7625 17.55 40.0017 16.9567 40 16.25C39.9983 15.5433 39.7583 14.95 39.28 14.47C38.8017 13.99 38.2083 13.75 37.5 13.75C36.7917 13.75 36.1983 13.99 35.72 14.47C35.2417 14.95 35.0017 15.5433 35 16.25C34.9983 16.9567 35.2383 17.5508 35.72 18.0325C36.2017 18.5142 36.795 18.7533 37.5 18.75ZM39.0325 23.22C37.9275 23.6983 37.125 24.4792 36.625 25.5625C36.4167 25.9792 36.4692 26.365 36.7825 26.72C37.0958 27.075 37.5017 27.2517 38 27.25H47C47.5 27.25 47.9067 27.0725 48.22 26.7175C48.5333 26.3625 48.585 25.9775 48.375 25.5625C47.875 24.4792 47.0733 23.6983 45.97 23.22C44.8667 22.7417 43.71 22.5017 42.5 22.5C41.29 22.4983 40.1358 22.7383 39.0325 23.22ZM6.875 50.625C3.95833 47.7083 2.5 44.1667 2.5 40V27.5C2.5 26.125 2.99 24.9483 3.97 23.97C4.95 22.9917 6.12667 22.5017 7.5 22.5H27.5C28.875 22.5 30.0525 22.99 31.0325 23.97C32.0125 24.95 32.5017 26.1267 32.5 27.5V40C32.5 44.1667 31.0417 47.7083 28.125 50.625C25.2083 53.5417 21.6667 55 17.5 55C13.3333 55 9.79167 53.5417 6.875 50.625ZM24.5625 47.0625C26.5208 45.1042 27.5 42.75 27.5 40V27.5H7.5V40C7.5 42.75 8.47917 45.1042 10.4375 47.0625C12.3958 49.0208 14.75 50 17.5 50C20.25 50 22.6042 49.0208 24.5625 47.0625ZM57.5 10V22.5C57.5 26.75 56.0417 30.3125 53.125 33.1875C50.2083 36.0625 46.6458 37.5 42.4375 37.5C41.7292 37.5 41.0317 37.4583 40.345 37.375C39.6583 37.2917 38.9808 37.1458 38.3125 36.9375C37.6442 36.7292 37.165 36.3125 36.875 35.6875C36.585 35.0625 36.5433 34.4167 36.75 33.75C36.9567 33.0833 37.3733 32.5933 38 32.28C38.6267 31.9667 39.2725 31.915 39.9375 32.125C40.3958 32.25 40.8333 32.3433 41.25 32.405C41.6667 32.4667 42.1042 32.4983 42.5625 32.5C45.3125 32.5 47.6567 31.5208 49.595 29.5625C51.5333 27.6042 52.5017 25.25 52.5 22.5V10H32.5V16.25C32.5 16.9583 32.26 17.5525 31.78 18.0325C31.3 18.5125 30.7067 18.7517 30 18.75C29.2933 18.7483 28.7 18.5083 28.22 18.03C27.74 17.5517 27.5 16.9583 27.5 16.25V10C27.5 8.625 27.99 7.44833 28.97 6.47C29.95 5.49167 31.1267 5.00167 32.5 5H52.5C53.875 5 55.0525 5.49 56.0325 6.47C57.0125 7.45 57.5017 8.62667 57.5 10ZM12.5 36.25C13.2083 36.25 13.8025 36.01 14.2825 35.53C14.7625 35.05 15.0017 34.4567 15 33.75C14.9983 33.0433 14.7583 32.45 14.28 31.97C13.8017 31.49 13.2083 31.25 12.5 31.25C11.7917 31.25 11.1983 31.49 10.72 31.97C10.2417 32.45 10.0017 33.0433 10 33.75C9.99833 34.4567 10.2383 35.0508 10.72 35.5325C11.2017 36.0142 11.795 36.2533 12.5 36.25ZM24.2825 35.53C24.7608 35.0533 25 34.46 25 33.75C25 33.04 24.76 32.4467 24.28 31.97C23.8 31.4933 23.2067 31.2533 22.5 31.25C21.7933 31.2467 21.2 31.4867 20.72 31.97C20.24 32.4533 20 33.0467 20 33.75C20 34.4533 20.24 35.0475 20.72 35.5325C21.2 36.0175 21.7933 36.2567 22.5 36.25C23.2067 36.2433 23.8008 36.0033 24.2825 35.53ZM20.8125 44.0625C21.8542 43.6042 22.6667 42.875 23.25 41.875C23.4583 41.4167 23.4375 40.9892 23.1875 40.5925C22.9375 40.1958 22.5833 39.9983 22.125 40H12.875C12.4167 40 12.0625 40.1983 11.8125 40.595C11.5625 40.9917 11.5417 41.4183 11.75 41.875C12.3333 42.875 13.1458 43.6042 14.1875 44.0625C15.2292 44.5208 16.3333 44.75 17.5 44.75C18.6667 44.75 19.7708 44.5208 20.8125 44.0625Z" fill="black"/>
<path d="M83.598 37V22.4545H85.7926V28.7756H93.044V22.4545H95.2457V37H93.044V30.6577H85.7926V37H83.598ZM101.446 37.2415C100.755 37.2415 100.13 37.1136 99.571 36.858C99.0123 36.5975 98.5696 36.2211 98.2429 35.7287C97.9209 35.2363 97.7599 34.6326 97.7599 33.9176C97.7599 33.3021 97.8783 32.7955 98.1151 32.3977C98.3518 32 98.6714 31.6851 99.0739 31.4531C99.4763 31.2211 99.9261 31.0459 100.423 30.9276C100.92 30.8092 101.427 30.7192 101.943 30.6577C102.597 30.5819 103.127 30.5204 103.534 30.473C103.941 30.4209 104.237 30.3381 104.422 30.2244C104.607 30.1108 104.699 29.9261 104.699 29.6705V29.6207C104.699 29.0005 104.524 28.5199 104.173 28.179C103.828 27.8381 103.312 27.6676 102.625 27.6676C101.91 27.6676 101.347 27.8262 100.935 28.1435C100.527 28.456 100.246 28.804 100.089 29.1875L98.0938 28.733C98.3305 28.0701 98.6761 27.535 99.1307 27.1278C99.59 26.7159 100.118 26.4176 100.714 26.233C101.311 26.0436 101.938 25.9489 102.597 25.9489C103.032 25.9489 103.494 26.0009 103.982 26.1051C104.474 26.2045 104.933 26.3892 105.359 26.6591C105.79 26.929 106.143 27.3149 106.418 27.8168C106.692 28.3139 106.83 28.9602 106.83 29.7557V37H104.756V35.5085H104.67C104.533 35.7831 104.327 36.053 104.053 36.3182C103.778 36.5833 103.425 36.8035 102.994 36.9787C102.563 37.1539 102.047 37.2415 101.446 37.2415ZM101.908 35.5369C102.495 35.5369 102.997 35.4209 103.413 35.1889C103.835 34.9569 104.154 34.6539 104.372 34.2798C104.595 33.901 104.706 33.4962 104.706 33.0653V31.6591C104.63 31.7348 104.483 31.8059 104.266 31.8722C104.053 31.9337 103.809 31.9882 103.534 32.0355C103.259 32.0781 102.992 32.1184 102.732 32.1562C102.471 32.1894 102.253 32.2178 102.078 32.2415C101.666 32.2936 101.29 32.3812 100.949 32.5043C100.613 32.6274 100.343 32.8049 100.139 33.0369C99.9403 33.2642 99.8409 33.5672 99.8409 33.946C99.8409 34.4716 100.035 34.8693 100.423 35.1392C100.812 35.4044 101.306 35.5369 101.908 35.5369ZM109.658 26.0909H111.739V35.1605H115.51V26.0909H117.591V35.1605H121.363V26.0909H123.444V37H109.658V26.0909ZM131.025 24.3438V22.4545H142.282V24.3438H137.744V37H135.556V24.3438H131.025ZM147.719 37.2202C146.644 37.2202 145.719 36.9905 144.942 36.5312C144.17 36.0672 143.574 35.4162 143.152 34.5781C142.736 33.7353 142.527 32.7481 142.527 31.6165C142.527 30.4991 142.736 29.5142 143.152 28.6619C143.574 27.8097 144.161 27.1444 144.914 26.6662C145.671 26.188 146.557 25.9489 147.57 25.9489C148.185 25.9489 148.782 26.0507 149.36 26.2543C149.937 26.4579 150.456 26.7775 150.915 27.2131C151.374 27.6487 151.737 28.2145 152.002 28.9105C152.267 29.6018 152.4 30.4422 152.4 31.4318V32.1847H143.728V30.5938H150.319C150.319 30.035 150.205 29.5402 149.978 29.1094C149.75 28.6738 149.431 28.3305 149.019 28.0795C148.612 27.8286 148.133 27.7031 147.584 27.7031C146.988 27.7031 146.467 27.8499 146.022 28.1435C145.581 28.4323 145.24 28.8111 144.999 29.2798C144.762 29.7438 144.644 30.2481 144.644 30.7926V32.0355C144.644 32.7647 144.772 33.3849 145.027 33.8963C145.288 34.4077 145.65 34.7983 146.114 35.0682C146.578 35.3333 147.12 35.4659 147.74 35.4659C148.143 35.4659 148.51 35.4091 148.841 35.2955C149.173 35.1771 149.459 35.0019 149.701 34.7699C149.942 34.5379 150.127 34.2514 150.255 33.9105L152.265 34.2727C152.104 34.8646 151.815 35.383 151.398 35.8281C150.986 36.2685 150.468 36.6117 149.843 36.858C149.222 37.0994 148.515 37.2202 147.719 37.2202ZM157.93 37.2415C157.239 37.2415 156.614 37.1136 156.055 36.858C155.497 36.5975 155.054 36.2211 154.727 35.7287C154.405 35.2363 154.244 34.6326 154.244 33.9176C154.244 33.3021 154.363 32.7955 154.599 32.3977C154.836 32 155.156 31.6851 155.558 31.4531C155.961 31.2211 156.411 31.0459 156.908 30.9276C157.405 30.8092 157.911 30.7192 158.428 30.6577C159.081 30.5819 159.611 30.5204 160.018 30.473C160.426 30.4209 160.722 30.3381 160.906 30.2244C161.091 30.1108 161.183 29.9261 161.183 29.6705V29.6207C161.183 29.0005 161.008 28.5199 160.658 28.179C160.312 27.8381 159.796 27.6676 159.109 27.6676C158.394 27.6676 157.831 27.8262 157.419 28.1435C157.012 28.456 156.73 28.804 156.574 29.1875L154.578 28.733C154.815 28.0701 155.161 27.535 155.615 27.1278C156.074 26.7159 156.602 26.4176 157.199 26.233C157.795 26.0436 158.423 25.9489 159.081 25.9489C159.517 25.9489 159.978 26.0009 160.466 26.1051C160.958 26.2045 161.418 26.3892 161.844 26.6591C162.275 26.929 162.627 27.3149 162.902 27.8168C163.177 28.3139 163.314 28.9602 163.314 29.7557V37H161.24V35.5085H161.155C161.018 35.7831 160.812 36.053 160.537 36.3182C160.262 36.5833 159.91 36.8035 159.479 36.9787C159.048 37.1539 158.532 37.2415 157.93 37.2415ZM158.392 35.5369C158.979 35.5369 159.481 35.4209 159.898 35.1889C160.319 34.9569 160.639 34.6539 160.857 34.2798C161.079 33.901 161.19 33.4962 161.19 33.0653V31.6591C161.115 31.7348 160.968 31.8059 160.75 31.8722C160.537 31.9337 160.293 31.9882 160.018 32.0355C159.744 32.0781 159.476 32.1184 159.216 32.1562C158.955 32.1894 158.738 32.2178 158.562 32.2415C158.151 32.2936 157.774 32.3812 157.433 32.5043C157.097 32.6274 156.827 32.8049 156.624 33.0369C156.425 33.2642 156.325 33.5672 156.325 33.946C156.325 34.4716 156.519 34.8693 156.908 35.1392C157.296 35.4044 157.791 35.5369 158.392 35.5369ZM164.789 27.9233V26.0909H173.994V27.9233H170.436V37H168.362V27.9233H164.789ZM176.24 41.0909V26.0909H178.314V27.8594H178.491C178.615 27.6321 178.792 27.3693 179.024 27.071C179.256 26.7727 179.578 26.5123 179.99 26.2898C180.402 26.0625 180.946 25.9489 181.624 25.9489C182.504 25.9489 183.29 26.1714 183.982 26.6165C184.673 27.0616 185.215 27.7031 185.608 28.5412C186.006 29.3793 186.205 30.3878 186.205 31.5668C186.205 32.7457 186.008 33.7566 185.615 34.5994C185.222 35.4375 184.682 36.0838 183.996 36.5384C183.309 36.9882 182.526 37.2131 181.645 37.2131C180.982 37.2131 180.44 37.1018 180.018 36.8793C179.602 36.6567 179.275 36.3963 179.038 36.098C178.802 35.7997 178.619 35.5346 178.491 35.3026H178.364V41.0909H176.24ZM178.321 31.5455C178.321 32.3125 178.432 32.9848 178.655 33.5625C178.877 34.1402 179.199 34.5923 179.621 34.919C180.042 35.241 180.558 35.402 181.169 35.402C181.804 35.402 182.334 35.2339 182.76 34.8977C183.186 34.5568 183.508 34.0952 183.726 33.5128C183.948 32.9304 184.06 32.2746 184.06 31.5455C184.06 30.8258 183.951 30.1795 183.733 29.6065C183.52 29.0336 183.198 28.5814 182.767 28.25C182.341 27.9186 181.808 27.7528 181.169 27.7528C180.554 27.7528 180.033 27.9115 179.607 28.2287C179.185 28.5459 178.866 28.9886 178.648 29.5568C178.43 30.125 178.321 30.7879 178.321 31.5455Z" fill="black"/>
</svg>
