<svg viewBox="0 0 10 10" fill="none" xmlns="http://www.w3.org/2000/svg">
<path d="M1 10C0.725 10 0.489667 9.90217 0.294 9.7065C0.0983334 9.51084 0.000333333 9.27534 0 9V2C0 1.725 0.098 1.48967 0.294 1.294C0.49 1.09833 0.725333 1.00034 1 1H1.5V0.500002C1.5 0.358335 1.548 0.239668 1.644 0.144002C1.74 0.0483351 1.85867 0.000335057 2 1.72414e-06C2.14133 -0.000331609 2.26017 0.0476684 2.3565 0.144002C2.45283 0.240335 2.50067 0.359002 2.5 0.500002V1H6.5V0.500002C6.5 0.358335 6.548 0.239668 6.644 0.144002C6.74 0.0483351 6.85867 0.000335057 7 1.72414e-06C7.14133 -0.000331609 7.26017 0.0476684 7.3565 0.144002C7.45283 0.240335 7.50067 0.359002 7.5 0.500002V1H8C8.275 1 8.5105 1.098 8.7065 1.294C8.9025 1.49 9.00033 1.72534 9 2V9C9 9.275 8.90217 9.5105 8.7065 9.7065C8.51083 9.9025 8.27533 10.0003 8 10H1ZM1 9H8V4H1V9Z" fill="#595959"/>
</svg>
