<svg width="80" height="80" viewBox="0 0 80 80" fill="none" xmlns="http://www.w3.org/2000/svg">
<g clip-path="url(#clip0_5_53)">
<path d="M60.0255 0H19.9745C8.94288 0 0 8.94288 0 19.9745V60.0255C0 71.0571 8.94288 80 19.9745 80H60.0255C71.0571 80 80 71.0571 80 60.0255V19.9745C80 8.94288 71.0571 0 60.0255 0Z" fill="url(#paint0_linear_5_53)"/>
<path d="M60.0255 0H19.9745C8.94288 0 0 8.94288 0 19.9745V60.0255C0 71.0571 8.94288 80 19.9745 80H60.0255C71.0571 80 80 71.0571 80 60.0255V19.9745C80 8.94288 71.0571 0 60.0255 0Z" fill="url(#paint1_radial_5_53)"/>
<path fill-rule="evenodd" clip-rule="evenodd" d="M40.6569 70.2662C34.6563 70.2662 31.8678 69.3902 27.0206 65.8862C23.9546 69.8282 14.2458 72.9089 13.8223 67.6382C13.8223 63.6818 12.9463 60.3384 11.9535 56.6884C10.771 52.1916 9.42776 47.1838 9.42776 39.9278C9.42776 22.5977 23.6481 9.56 40.4963 9.56C57.3591 9.56 70.5721 23.2401 70.5721 40.0883C70.6286 56.676 57.2445 70.1778 40.6569 70.2662ZM40.9051 24.5394C32.7 24.1161 26.3052 29.7954 24.889 38.7014C23.721 46.0743 25.7942 55.0532 27.5608 55.5204C28.4076 55.7248 30.5392 54.002 31.8678 52.6734C34.0647 54.1911 36.6229 55.1026 39.2846 55.316C47.7864 55.725 55.051 49.2525 55.6218 40.76C55.9541 32.2494 49.4082 25.0411 40.9051 24.5541V24.5394Z" fill="white"/>
</g>
<defs>
<linearGradient id="paint0_linear_5_53" x1="9.42776" y1="60.8429" x2="80" y2="40" gradientUnits="userSpaceOnUse">
<stop stop-color="#44CCFF"/>
<stop offset="0.662" stop-color="#5533EE"/>
<stop offset="1" stop-color="#9933DD"/>
</linearGradient>
<radialGradient id="paint1_radial_5_53" cx="0" cy="0" r="1" gradientUnits="userSpaceOnUse" gradientTransform="translate(-1.90326 -35.1348) rotate(51.356) scale(97.0814 40)">
<stop stop-color="#0000FF"/>
<stop offset="1" stop-opacity="0"/>
</radialGradient>
<clipPath id="clip0_5_53">
<rect width="80" height="80" fill="white"/>
</clipPath>
</defs>
</svg>
