<svg width="80" height="80" viewBox="0 0 80 80" fill="none" xmlns="http://www.w3.org/2000/svg">
<rect width="80" height="80" rx="20" fill="url(#paint0_linear_5_50)"/>
<path d="M0.23999 38.28C0.23999 20.28 0.23999 11.24 5.8 5.64001C11.44 0.0800175 20.44 0.0800171 38.48 0.0800171H41.68C59.68 0.0800171 68.72 0.0800175 74.32 5.64001C79.88 11.2 79.88 20.28 79.88 38.28V41.48C79.88 59.48 79.88 68.52 74.32 74.12C68.76 79.68 59.68 79.68 41.68 79.68H38.48C20.48 79.68 11.44 79.68 5.84 74.12C0.239991 68.52 0.23999 59.52 0.23999 41.48V38.28Z" fill="url(#paint1_linear_5_50)"/>
<path fill-rule="evenodd" clip-rule="evenodd" d="M18.5424 39.5778C30.349 34.4974 38.2219 31.148 42.1611 29.5298C53.4084 24.9094 55.7455 24.1068 57.2687 24.0803C57.6038 24.0745 58.3529 24.1565 58.8381 24.5454C59.2478 24.8737 59.3606 25.3173 59.4145 25.6286C59.4685 25.9399 59.5356 26.6491 59.4822 27.2033C58.8728 33.5282 56.2355 48.8772 54.8938 55.9612C54.3261 58.9588 53.2082 59.9638 52.126 60.0622C49.7741 60.2759 47.9881 58.5271 45.7102 57.0523C42.1457 54.7445 40.1319 53.308 36.672 51.056C32.6733 48.4535 35.2655 47.0231 37.5443 44.6855C38.1406 44.0737 48.5032 34.7645 48.7038 33.92C48.7289 33.8144 48.7522 33.4207 48.5153 33.2129C48.2785 33.005 47.929 33.0761 47.6768 33.1326C47.3193 33.2127 41.6249 36.93 30.5937 44.2845C28.9773 45.3807 27.5133 45.9148 26.2016 45.8868C24.7555 45.856 21.9739 45.0793 19.9061 44.4154C17.3697 43.6011 15.3539 43.1706 15.5295 41.7877C15.6209 41.0674 16.6252 40.3308 18.5424 39.5778Z" fill="white"/>
<defs>
<linearGradient id="paint0_linear_5_50" x1="4000" y1="0" x2="4000" y2="7940.67" gradientUnits="userSpaceOnUse">
<stop stop-color="#2AABEE"/>
<stop offset="1" stop-color="#229ED9"/>
</linearGradient>
<linearGradient id="paint1_linear_5_50" x1="3982.24" y1="0.0800171" x2="3982.24" y2="7901.04" gradientUnits="userSpaceOnUse">
<stop stop-color="#2AABEE"/>
<stop offset="1" stop-color="#229ED9"/>
</linearGradient>
</defs>
</svg>
