<svg viewBox="0 0 10 10" fill="none" xmlns="http://www.w3.org/2000/svg">
<path d="M5.5 5.0875L6.625 6.2125C6.71667 6.30417 6.7625 6.41883 6.7625 6.5565C6.7625 6.69417 6.71667 6.81283 6.625 6.9125C6.525 7.0125 6.40633 7.0625 6.269 7.0625C6.13167 7.0625 6.01283 7.0125 5.9125 6.9125L4.65 5.65C4.6 5.6 4.5625 5.54383 4.5375 5.4815C4.5125 5.41917 4.5 5.3545 4.5 5.2875V3.5C4.5 3.35833 4.548 3.23967 4.644 3.144C4.74 3.04833 4.85867 3.00033 5 3C5.14133 2.99967 5.26017 3.04767 5.3565 3.144C5.45283 3.24033 5.50067 3.359 5.5 3.5V5.0875ZM4.6435 1.8565C4.54783 1.7605 4.5 1.64167 4.5 1.5V1H5.5V1.5C5.5 1.64167 5.452 1.7605 5.356 1.8565C5.26 1.9525 5.14133 2.00033 5 2C4.85867 1.99967 4.74 1.95167 4.644 1.856M8.144 4.644C8.23967 4.548 8.35833 4.5 8.5 4.5H9V5.5H8.5C8.35833 5.5 8.23967 5.452 8.144 5.356C8.04833 5.26 8.00033 5.14133 8 5C7.99967 4.85867 8.04767 4.74 8.144 4.644ZM5.3565 8.144C5.45217 8.23967 5.5 8.35833 5.5 8.5V9H4.5V8.5C4.5 8.35833 4.548 8.23967 4.644 8.144C4.74 8.04833 4.85867 8.00033 5 8C5.14133 7.99967 5.26017 8.04767 5.3565 8.144ZM1.8565 5.3565C1.7605 5.45217 1.64167 5.5 1.5 5.5H1V4.5H1.5C1.64167 4.5 1.7605 4.548 1.8565 4.644C1.9525 4.74 2.00033 4.85867 2 5C1.99967 5.14133 1.95217 5.26017 1.8565 5.3565ZM5 10C4.30833 10 3.65833 9.86867 3.05 9.606C2.44167 9.34333 1.9125 8.98717 1.4625 8.5375C1.0125 8.08783 0.656334 7.55867 0.394001 6.95C0.131667 6.34133 0.000333966 5.69133 6.32911e-07 5C-0.0003327 4.30867 0.131001 3.65867 0.394001 3.05C0.657001 2.44133 1.01317 1.91217 1.4625 1.4625C1.91183 1.01283 2.441 0.656667 3.05 0.394C3.659 0.131333 4.309 0 5 0C5.691 0 6.341 0.131333 6.95 0.394C7.559 0.656667 8.08817 1.01283 8.5375 1.4625C8.98683 1.91217 9.34317 2.44133 9.6065 3.05C9.86983 3.65867 10.001 4.30867 10 5C9.999 5.69133 9.86767 6.34133 9.606 6.95C9.34433 7.55867 8.98817 8.08783 8.5375 8.5375C8.08683 8.98717 7.55767 9.3435 6.95 9.6065C6.34233 9.8695 5.69233 10.0007 5 10ZM9 5C9 3.88333 8.6125 2.9375 7.8375 2.1625C7.0625 1.3875 6.11667 1 5 1C3.88333 1 2.9375 1.3875 2.1625 2.1625C1.3875 2.9375 1 3.88333 1 5C1 6.11667 1.3875 7.0625 2.1625 7.8375C2.9375 8.6125 3.88333 9 5 9C6.11667 9 7.0625 8.6125 7.8375 7.8375C8.6125 7.0625 9 6.11667 9 5Z" fill="#595959"/>
</svg>
