<svg width="80" height="80" viewBox="0 0 80 80" fill="none" xmlns="http://www.w3.org/2000/svg">
<g clip-path="url(#clip0_5_198)">
<path d="M0.509399 38.5198C0.509399 20.5971 0.509399 11.6358 6.07727 6.06787C11.6452 0.5 20.6065 0.5 38.5292 0.5H41.6975C59.6202 0.5 68.5816 0.5 74.1495 6.06787C79.7173 11.6358 79.7173 20.5971 79.7173 38.5198V41.6881C79.7173 59.6108 79.7173 68.5722 74.1495 74.1401C68.5816 79.7079 59.6202 79.7079 41.6975 79.7079H38.5292C20.6065 79.7079 11.6452 79.7079 6.07727 74.1401C0.509399 68.5722 0.509399 59.6108 0.509399 41.6881V38.5198Z" fill="#0077FF"/>
<path d="M42.6547 57.563C24.6019 57.563 14.3049 45.1867 13.8759 24.5927H22.9188C23.2158 39.7082 29.8823 46.1108 35.1628 47.4309V24.5927H43.678V37.6289C48.8925 37.0678 54.3703 31.1273 56.2186 24.5927H64.7337C63.3145 32.6455 57.3739 38.586 53.1495 41.0282C57.3739 43.0084 64.1399 48.19 66.7142 57.563H57.341C55.3277 51.2923 50.3117 46.4408 43.678 45.7807V57.563H42.6547Z" fill="white"/>
</g>
<defs>
<clipPath id="clip0_5_198">
<rect width="80" height="80" fill="white"/>
</clipPath>
</defs>
</svg>
